<svg id="Layer_1" enable-background="new 0 0 512 512" height="512" viewBox="0 0 512 512" width="512" xmlns="http://www.w3.org/2000/svg"><g><ellipse cx="272" cy="178" fill="#f3f3f3" rx="84" ry="102"/><path d="m272 76c-5.12 0-10.133.558-15 1.624 39.235 8.588 69 50.261 69 100.376 0 50.116-29.765 91.788-69 100.376 4.867 1.065 9.88 1.624 15 1.624 46.392 0 84-45.667 84-102s-37.608-102-84-102z" fill="#e4e4e4"/><path d="m486 261h-348c-8.837 0-16-7.163-16-16 0-8.837 7.163-16 16-16h348c8.837 0 16 7.163 16 16 0 8.837-7.163 16-16 16z" fill="#be652b"/><path d="m408.533 341h-193.066c-30.355 0-56.707-20.92-63.592-50.484l-6.875-29.516h334l-6.874 29.516c-6.886 29.564-33.237 50.484-63.593 50.484z" fill="#d67b42"/><path d="m449 261-6.874 29.516c-6.886 29.564-33.237 50.484-63.593 50.484h30c30.355 0 56.707-20.92 63.592-50.484l6.875-29.516z" fill="#be652b"/><circle cx="65.875" cy="390.821" fill="#f75632" r="38"/><path d="m65.875 352.82c-5.328 0-10.398 1.101-15 3.081 13.526 5.818 23 19.261 23 34.919s-9.474 29.101-23 34.919c4.602 1.98 9.672 3.081 15 3.081 20.987 0 38-17.013 38-38s-17.013-38-38-38z" fill="#e33629"/><ellipse cx="56" cy="266.642" fill="#6de470" rx="40.991" ry="54.988" transform="matrix(.707 -.707 .707 .707 -172.143 117.696)"/><path d="m84.985 237.657c-17.312-17.312-40.417-23.547-57.109-16.925 9.471 3.048 18.936 8.752 27.109 16.925 21.474 21.474 25.905 51.859 9.897 67.867-3.102 3.102-6.745 5.436-10.758 7.028 15.412 4.96 30.843 2.887 40.758-7.028 16.008-16.007 11.577-46.393-9.897-67.867z" fill="#4dcc68"/><path d="m7.5 341h497v30h-497z" fill="#a75224"/><ellipse cx="400.478" cy="368.5" fill="#6de470" rx="54.988" ry="40.991" transform="matrix(.707 -.707 .707 .707 -143.272 391.112)"/><path d="m439.36 329.618c-9.916-9.916-25.348-11.981-40.762-7.02 4.013 1.592 7.66 3.917 10.762 7.02 16.008 16.008 11.577 46.393-9.897 67.867-8.172 8.172-17.635 13.868-27.105 16.917 16.693 6.621 39.793.396 57.105-16.917 21.474-21.474 25.905-51.859 9.897-67.867z" fill="#4dcc68"/><ellipse cx="138.312" cy="368.5" fill="#6de470" rx="54.988" ry="40.991" transform="matrix(.707 -.707 .707 .707 -220.058 205.732)"/><path d="m177.194 329.618c-9.916-9.916-25.348-11.981-40.762-7.02 4.013 1.592 7.66 3.917 10.762 7.02 16.008 16.008 11.577 46.393-9.897 67.867-8.172 8.172-17.635 13.868-27.105 16.917 16.693 6.621 39.793.396 57.105-16.917 21.474-21.474 25.905-51.859 9.897-67.867z" fill="#4dcc68"/><circle cx="214" cy="398" fill="#f75632" r="38"/><path d="m214 360c-5.328 0-10.398 1.101-15 3.081 13.526 5.818 23 19.261 23 34.919s-9.474 29.101-23 34.919c4.602 1.98 9.672 3.081 15 3.081 20.987 0 38-17.013 38-38s-17.013-38-38-38z" fill="#e33629"/><g><path d="m504.5 333.5h-51.762c13.307-10.206 22.866-24.838 26.697-41.28l5.52-23.72h1.045c12.958 0 23.5-10.542 23.5-23.5s-10.542-23.5-23.5-23.5h-37.409c-4.142 0-7.5 3.358-7.5 7.5s3.357 7.5 7.5 7.5h37.409c4.686 0 8.5 3.813 8.5 8.5s-3.813 8.5-8.5 8.5h-347.992c-4.686 0-8.5-3.813-8.5-8.5s3.813-8.5 8.5-8.5h277.559c4.143 0 7.5-3.358 7.5-7.5s-3.357-7.5-7.5-7.5h-22.892l33.51-18.798c.742-.416 1.407-.955 1.968-1.594l25.023-28.514 47.603-19.192c3.842-1.549 5.7-5.919 4.151-9.76-1.55-3.842-5.921-5.702-9.761-4.152l-37.224 15.008 2.871-20.455c.576-4.102-2.282-7.894-6.385-8.47-4.097-.581-7.894 2.283-8.469 6.385l-4.362 31.086-23.875 27.205-55.708 31.251h-6.012c4.923-13.656 7.497-28.507 7.497-43.5 0-60.378-41.046-109.5-91.498-109.5-15.102 0-30.066 4.484-43.273 12.967-3.484 2.239-4.495 6.879-2.257 10.364 2.239 3.486 6.878 4.497 10.364 2.257 10.937-7.025 22.768-10.588 35.165-10.588 42.182 0 76.498 42.393 76.498 94.5 0 15.167-2.968 30.129-8.598 43.5h-135.794c-5.631-13.373-8.602-28.325-8.602-43.5 0-23.696 7.155-46.372 20.147-63.848 2.471-3.324 1.779-8.022-1.545-10.494-3.325-2.472-8.021-1.779-10.494 1.544-14.901 20.046-23.108 45.899-23.108 72.797 0 15.002 2.58 29.843 7.503 43.5h-50.002c-12.958 0-23.499 10.542-23.499 23.5s10.542 23.5 23.499 23.5h1.045l5.52 23.722c1.698 7.286 4.435 14.088 8.029 20.268-2.721-.015-5.515.183-8.366.6-7.915 1.154-15.789 3.948-23.19 8.133l-16.274-15.913c6.112-8.906 8.467-20.28 6.648-32.751-2.101-14.406-9.602-28.684-21.122-40.205-24.365-24.364-59.567-28.803-78.473-9.897-9.458 9.459-13.445 23.05-11.225 38.27 2.101 14.406 9.602 28.684 21.122 40.205s25.798 19.022 40.204 21.123c2.752.401 5.448.6 8.078.6 9.02 0 17.238-2.339 24.061-6.833l14.507 14.184c-1.297 1.115-2.561 2.287-3.801 3.496h-97.26c-4.142 0-7.5 3.358-7.5 7.5v30c0 4.142 3.357 7.5 7.5 7.5h14.571c-1.117 3.983-1.692 8.126-1.692 12.32 0 25.089 20.411 45.5 45.499 45.5 14.344 0 27.482-6.61 35.997-17.673 6.614 3.863 14.337 5.76 22.492 5.76 14.919 0 31.262-6.334 44.842-18.44 3.779 21.302 22.417 37.534 44.786 37.534 25.088 0 45.499-20.411 45.499-45.5 0-6.975-1.582-13.586-4.399-19.5h8.437c4.142 0 7.5-3.358 7.5-7.5s-3.357-7.5-7.5-7.5h-19.923c-7.966-6.847-18.311-11-29.614-11-7.114 0-13.85 1.644-19.854 4.568.136-2.91.051-5.778-.287-8.568h160.953c-2.994 4.811-5.391 9.852-7.118 15h-51.388c-4.143 0-7.5 3.358-7.5 7.5s3.357 7.5 7.5 7.5h48.326c-1.003 13.556 3.055 25.583 11.657 34.186 7.898 7.897 18.637 11.721 30.243 11.721 16.179 0 34.042-7.432 48.229-21.619 7.356-7.356 12.882-15.703 16.511-24.288h53.222c4.142 0 7.5-3.358 7.5-7.5v-30c0-4.144-3.357-7.502-7.5-7.502zm-440.41-26.29c-11.231-1.638-22.511-7.635-31.762-16.886-9.252-9.251-15.249-20.532-16.886-31.763-1.519-10.417.964-19.472 6.99-25.499 5.064-5.065 12.027-7.497 19.736-7.497 12.167 0 26.19 6.061 37.523 17.394 9.252 9.251 15.249 20.532 16.886 31.763 1.098 7.53.094 14.342-2.817 19.819l-33.507-32.763c-2.963-2.896-7.712-2.842-10.605.12-2.896 2.961-2.843 7.71.119 10.606l33.137 32.401c-5.297 2.518-11.741 3.337-18.814 2.305zm-49.08 41.29h77.648c-2.994 4.811-5.391 9.852-7.118 15h-70.53zm50.879 72.82c-16.817 0-30.499-13.682-30.499-30.5 0-4.276.891-8.468 2.591-12.32h44.496c-.855 11.554 1.97 21.993 8.152 30.151-5.679 7.909-14.775 12.669-24.74 12.669zm38.853-19.241c-6.026-6.026-8.509-15.082-6.989-25.498 1.638-11.231 7.635-22.511 16.886-31.763 9.251-9.251 20.531-15.249 31.761-16.886 2-.292 3.949-.436 5.836-.436 5.008 0 9.578 1.017 13.493 2.987l-32.713 32.713c-2.929 2.929-2.929 7.678 0 10.606 1.465 1.465 3.384 2.197 5.304 2.197 1.919 0 3.839-.732 5.304-2.197l32.719-32.719c.331.651.638 1.316.915 1.998.108.374.246.734.408 1.081 2.468 6.938 2.248 15.255-.451 23.695-.236.511-.423 1.049-.54 1.614-2.81 7.883-7.759 15.796-14.673 22.709-18.517 18.516-44.205 22.957-57.26 9.899zm139.764-4.079c0 16.818-13.682 30.5-30.499 30.5s-30.499-13.682-30.499-30.5 13.682-30.5 30.499-30.5 30.499 13.682 30.499 30.5zm-76.672-89.5h39.146c4.143 0 7.5-3.358 7.5-7.5s-3.357-7.5-7.5-7.5h-46.499c-.492-1.53-.928-3.09-1.299-4.68l-4.728-20.32h315.101l-3.378 14.516h-52.017c-4.142 0-7.5 3.358-7.5 7.5s3.357 7.5 7.5 7.5h47.666c-4.071 9.679-10.733 18.154-19.244 24.377-19.117-16.464-52.191-11.767-75.649 11.107h-151.457c-19.585 0-37.133-9.663-47.642-25zm256.327 83.682c-18.516 18.514-44.202 22.955-57.259 9.897-6.026-6.026-8.509-15.082-6.989-25.498 1.638-11.231 7.635-22.511 16.886-31.763 11.334-11.335 25.355-17.394 37.522-17.394 4.933 0 9.559 1.002 13.58 3.047l-32.725 32.726c-2.929 2.929-2.929 7.678 0 10.606 1.465 1.465 3.384 2.197 5.304 2.197 1.919 0 3.839-.732 5.304-2.197l32.719-32.719c.335.659.645 1.331.925 2.021.104.355.235.697.387 1.028 2.482 6.951 2.261 15.29-.449 23.751-.226.493-.404 1.012-.519 1.555-2.809 7.894-7.763 15.82-14.686 22.743zm72.839-28.682h-41.356c.824-5.119.966-10.172.382-15h40.974z"/><path d="m347.563 293.5h-74.789c-4.142 0-7.5 3.358-7.5 7.5s3.357 7.5 7.5 7.5h74.789c4.142 0 7.5-3.358 7.5-7.5s-3.357-7.5-7.5-7.5z"/></g></g></svg>