<svg height="512" viewBox="0 0 58 58" width="512" xmlns="http://www.w3.org/2000/svg"><g id="Page-1" fill="none" fill-rule="evenodd"><g id="006---Chick-In-Nest" fill-rule="nonzero"><path id="Shape" d="m40.85 29c1.4716222-2.7678742 2.2116905-5.8658345 2.15-9 0-9.94-6.27-20-14-20s-14 10.06-14 20c-.0616905 3.1341655.6783778 6.2321258 2.15 9l11.85 2z" fill="#f0c419"/><path id="Shape" d="m33 16c-.0015809.1914034-.064689.3772219-.18.53l-2.94 4.04c-.2121416.2700867-.5365602.4277974-.88.4277974s-.6678584-.1577107-.88-.4277974l-2.94-4.04c-.115311-.1527781-.1784191-.3385966-.18-.53z" fill="#e57e25"/><path id="Shape" d="m33 16h-8c.0015809-.1914034.064689-.3772219.18-.53l2.94-4.04c.2121416-.2700867.5365602-.4277974.88-.4277974s.6678584.1577107.88.4277974l2.94 4.04c.115311.1527781.1784191.3385966.18.53z" fill="#f29c1f"/><path id="Shape" d="m23 14h-2c-.5522847 0-1-.4477153-1-1s.4477153-1 1-1h.551c-.0792785-.103386-.1654762-.2012772-.258-.293-.3789722-.3923789-.3735524-1.0160848.0121814-1.4018186.3857338-.38573377 1.0094397-.39115361 1.4018186-.0121814.7608717.7041081 1.2235 1.6726579 1.293 2.707 0 .5522847-.4477153 1-1 1z" fill="#3f5c6c"/><path id="Shape" d="m37 14h-2c-.5522847 0-1-.4477153-1-1 .0695-1.0343421.5321283-2.0028919 1.293-2.707.3923789-.37897221 1.0160848-.37355237 1.4018186.0121814.3857338.3857338.3911536 1.0094397.0121814 1.4018186-.0925238.0917228-.1787215.189614-.258.293h.551c.5522847 0 1 .4477153 1 1s-.4477153 1-1 1z" fill="#3f5c6c"/><path id="Shape" d="m43 20c.0616905 3.1341655-.6783778 6.2321258-2.15 9h-3.85c0-8.34 4.17-12.51 5.56-13.65.2914565 1.5328727.4387659 3.0896654.44 4.65z" fill="#f29c1f"/><path id="Shape" d="m21 29h-3.85c-1.4716222-2.7678742-2.2116905-5.8658345-2.15-9 .0012341-1.5603346.1485435-3.1171273.44-4.65 1.39 1.14 5.56 5.31 5.56 13.65z" fill="#f29c1f"/><path id="Shape" d="m58 31v7c.0070479 7.5013424-4.1918991 14.3734-10.87 17.79-.7624464.3992144-1.5508944.746666-2.36 1.04h-.01c-2.168733.7779338-4.4559667 1.1738011-6.76 1.17h-18c-1.4357088.000196-2.8672746-.1540242-4.27-.46-.7871318-.168236-1.5621813-.3887242-2.32-.66-6.05350088-2.1127131-10.7276475-6.9988139-12.57-13.14-.19190634-.6409976-.34880476-1.2919592-.47-1.95-.25023611-1.2477113-.37419475-2.5174498-.37-3.79v-7c.0032948-1.1032019.89679813-1.9967052 2-2h54c1.1032019.0032948 1.9967052.8967981 2 2z" fill="#a56a43"/><g fill="#805333"><path id="Shape" d="m29 36c0 .5522847-.4477153 1-1 1h-28v-2h28c.5522847 0 1 .4477153 1 1z"/><path id="Shape" d="m58 35v2h-5.46l-1.71 2.55c-.1793781.3344065-.5325821.5384678-.9118826.5268341-.3793006-.0116337-.7193347-.2369575-.8778815-.5817287-.1585468-.3447711-.1082846-.749577.1297641-1.0451054l.96-1.45h-4.13c-.5522847 0-1-.4477153-1-1s.4477153-1 1-1z"/><path id="Shape" d="m24 45h-15c-.55228475 0-1 .4477153-1 1s.44771525 1 1 1h15c.5522847 0 1-.4477153 1-1s-.4477153-1-1-1z"/><path id="Shape" d="m47 50c0-.5522847-.4477153-1-1-1h-16c-.5522847 0-1 .4477153-1 1s.4477153 1 1 1h16c.5522847 0 1-.4477153 1-1z"/><path id="Shape" d="m40.376 33.929 15.243-12.029c.2906642-.2177386.4404301-.5759487.3912439-.9357771-.0491863-.3598284-.2895918-.6647045-.6280281-.7964491s-.7216959-.0696453-1.0012158.1622262l-4.687 3.7-.694-4.193c-.0532292-.3570793-.2947952-.657744-.6320236-.786647-.3372284-.1289031-.7177546-.0660285-.9955935.1645025-.2778388.2305309-.4098478.5929217-.3453829.9481445l.869 5.282-8.762 6.914c-.2906642.2177386-.4404301.5759487-.3912439.9357771.0491863.3598284.2895918.6647045.6280281.7964491s.7216959.0696453 1.0012158-.1622262z"/><path id="Shape" d="m37.375 45.781c.4313344.345178 1.060822.2753344 1.406-.156s.2753344-1.060822-.156-1.406l-2.774-2.219h8.149c.5522847 0 1-.4477153 1-1s-.4477153-1-1-1h-19c-.5522847 0-1 .4477153-1 1s.4477153 1 1 1h7.649z"/><path id="Shape" d="m8.35 40.94-7.42 2.78c-.02875161.0113906-.05913019.0181413-.09.02-.19190634-.6409976-.34880476-1.2919592-.47-1.95l7.28-2.73c.33582965-.125043.71285868-.0614244.98906388.1668911s.40962445.5866415.35.94-.30323423.6480659-.63906388.7731089z"/><path id="Shape" d="m23.51 52.86-7.78 4.68c-.7871318-.168236-1.5621813-.3887242-2.32-.66.0739497-.2312525.2306206-.4270912.44-.55l8.64-5.19c.3076063-.1896951.6936296-.1986612 1.0097115-.0234523.3160818.1752089.5130363.5073283.515169.8687164.0021326.361388-.1908885.6958088-.5048805.8747359z"/><path id="Shape" d="m47.13 55.79c-.7624464.3992144-1.5508944.746666-2.36 1.04h-.01l-6.05-1.87c-.5301933-.1601626-.8301625-.7198066-.6699999-1.25.1601625-.5301933.7198066-.8301625 1.2499999-.67l7.24 2.23c.2612869.0864816.4772591.2736575.6.52z"/><path id="Shape" d="m10.219 32.625c.223291.2790245.5784781.4177293.9317659.3638659.3532877-.0538635.6510033-.2921121.781-.625.1299968-.3328879.0725251-.7098415-.1507659-.9888659l-4.6-5.752.769-2.307c.17452198-.5246705-.10932949-1.091478-.634-1.266s-1.09147802.1093295-1.266.634l-.36 1.079-1.909-2.388c-.22329099-.2790244-.57847814-.4177293-.93176588-.3638658-.35328774.0538634-.65100325.2921121-.781.625-.12999674.3328878-.07252511.7098414.15076588.9888658z"/></g></g></g></svg>